<?xml version="1.0" encoding="utf-8"?>
<!-- Generator: Adobe Illustrator 19.2.1, SVG Export Plug-In . SVG Version: 6.00 Build 0)  -->
<svg version="1.1" id="Layer_1" xmlns="http://www.w3.org/2000/svg" xmlns:xlink="http://www.w3.org/1999/xlink" x="0px" y="0px"
	 viewBox="0 0 77 31.3" style="enable-background:new 0 0 77 31.3;" xml:space="preserve">
<style type="text/css">
	.st0{fill:#61C0E0;}
</style>
<title>Leda_export</title>
<path class="st0" d="M5,30.7c-0.8,0-1.6-0.4-2-1.1c-1.4-2.3-2.2-4.9-2.3-7.6c-0.1-1.4,0-17.2,0-19c0-1.3,1.1-2.4,2.4-2.4l0,0
	c1.3,0,2.4,1.1,2.4,2.4c0,7,0,17.8,0,18.8C5.4,23.6,6,25.4,7,27c0.7,1.1,0.4,2.6-0.7,3.3C5.9,30.6,5.5,30.7,5,30.7z"/>
<path class="st0" d="M52.3,27c-1.1-1.4-1.8-3.1-1.9-4.9V3c0-1.2-1-2.2-2.2-2.2s-2.2,1-2.2,2.2v8.8c-1.6-1.1-3.4-1.6-5.3-1.6
	c-5.6,0-10.2,4.6-10.2,10.2c0,0,0,0,0,0.1c0,5.7,4.7,10.3,10.4,10.2c2.6,0,5-1,6.9-2.7c0.3,0.6,0.6,1.1,1,1.7c0.4,0.7,1.2,1.1,2,1.1
	c0.4,0,0.8-0.1,1.1-0.4C52.9,29.5,53.1,28.1,52.3,27C52.3,27,52.3,27,52.3,27z M40.8,26c-3,0-5.5-2.5-5.5-5.5c0-3,2.5-5.5,5.5-5.5
	c3,0,5.5,2.5,5.5,5.5C46.3,23.5,43.8,26,40.8,26z"/>
<path class="st0" d="M75.9,27c-1-1.4-1.6-3.1-1.7-4.9V11.9c0.1-1.2-0.9-2.3-2.2-2.4c0,0-0.1,0-0.1,0c-1.3,0-2.3,1-2.3,2.3
	c-1.6-1.1-3.5-1.6-5.5-1.6c-5.7,0-10.2,4.6-10.2,10.3c0,5.7,4.6,10.2,10.3,10.2c2.6,0,5-1,6.9-2.7c0.3,0.6,0.6,1.1,0.9,1.7
	c0.4,0.7,1.2,1.1,2,1.1c0.4,0,0.9-0.1,1.2-0.4C76.3,29.6,76.6,28.1,75.9,27C75.9,27,75.9,27,75.9,27z M64.1,26c-3,0-5.5-2.5-5.5-5.5
	s2.5-5.5,5.5-5.5c3,0,5.5,2.5,5.5,5.5C69.7,23.5,67.2,26,64.1,26z"/>
<path class="st0" d="M18.6,30.7c2.7,0.1,5.4-0.9,7.4-2.7c1-0.8,1.2-2.3,0.3-3.3S24,23.5,23,24.4l0,0c-1.2,1.1-2.8,1.6-4.4,1.5
	c-2.3,0.1-4.3-1.4-4.8-3.7h11.8c1.5,0,2.7-1.2,2.8-2.7c0-5.4-4.2-9.4-9.7-9.4c-2.7,0-5.3,1.1-7.1,3.1c-3.6,4.1-3.6,10.3,0,14.4
	C13.3,29.6,15.9,30.7,18.6,30.7z M18.6,15.3c2.3,0,4.7,1.2,5,4.1h-9.9C13.9,16.9,16.1,15.1,18.6,15.3z"/>
</svg>
